<?xml version="1.0" encoding="UTF-8"?>
<svg width="100px" height="32px" viewBox="0 0 100 32" version="1.1" xmlns="http://www.w3.org/2000/svg" xmlns:xlink="http://www.w3.org/1999/xlink">
    <title>PayPal</title>
    <g id="Page-1" stroke="none" stroke-width="1" fill="none" fill-rule="evenodd">
        <g id="paypal" fill-rule="nonzero">
            <rect id="Rectangle" fill="#FFFFFF" x="0" y="0" width="100" height="32" rx="4"></rect>
            <g id="Group" transform="translate(30.000000, 8.000000)">
                <path d="M7.5,15.5 L8.5,9.5 L6,9.5 L3,15.5 L5.5,15.5 L7.5,15.5 Z M8.8,8 L13.3,8 C15.3,8 16,9 15.8,10.5 C15.4,13.5 13.5,15 10.8,15 L9.8,15 L9,19 L6,19 L8.8,8 Z" id="Shape" fill="#253B80"></path>
                <path d="M23.8,8 C26,8 27.5,9.2 27,11.5 C26.5,14.5 24.3,16 21.3,16 L19.8,16 L19,19 L16,19 L18.8,8 L23.8,8 Z M21.5,13.5 C22.8,13.5 23.8,12.8 24,11.5 C24.1,10.8 23.5,10.3 22.5,10.3 L21,10.3 L20.3,13.5 L21.5,13.5 Z" id="Shape" fill="#253B80"></path>
                <path d="M28,15.5 L30.5,15.5 L29.8,19 L27.3,19 L28,15.5 Z M29.3,8 L31.8,8 L30.3,15 L27.8,15 L29.3,8 Z" id="Shape" fill="#253B80"></path>
                <path d="M32.3,11.8 C32.5,10.5 33.8,8 37,8 C39.8,8 40.8,10 40.3,12.3 L38.3,12.3 C38.5,11 38,10.3 36.8,10.3 C35.5,10.3 34.8,11.3 34.5,12.3 C34.3,13.3 34.8,14.3 36,14.3 C37,14.3 37.8,13.5 38,12.5 L40,12.5 C39.5,15 37.5,16.5 35,16.5 C32.3,16.5 30.8,14.5 31.3,12 C31.3,12 32.3,11.8 32.3,11.8 Z" id="Path" fill="#179BD7"></path>
            </g>
        </g>
    </g>
</svg>
