<?xml version="1.0" encoding="UTF-8"?>
<svg width="100px" height="32px" viewBox="0 0 100 32" version="1.1" xmlns="http://www.w3.org/2000/svg" xmlns:xlink="http://www.w3.org/1999/xlink">
    <title>Visa</title>
    <g id="Page-1" stroke="none" stroke-width="1" fill="none" fill-rule="evenodd">
        <g id="visa" fill-rule="nonzero">
            <rect id="Rectangle" fill="#FFFFFF" x="0" y="0" width="100" height="32" rx="4"></rect>
            <path d="M42.5,10.5 L37.9,21.5 L35.1,21.5 L32.8,13.1 C32.6,12.3 32.4,12 31.7,11.7 C30.6,11.2 28.8,10.7 27.2,10.4 L27.3,10.1 L33.2,10.1 C34,10.1 34.7,10.6 34.9,11.5 L36.1,17.8 L39,10.1 L42.5,10.1 L42.5,10.5 Z" id="Path" fill="#00579F"></path>
            <path d="M58.5,17.3 C58.5,19.9 56.4,21.9 52.8,21.9 C51.3,21.9 50,21.5 49.1,21 L49.7,18.3 C50.6,18.8 51.7,19.1 52.9,19.1 C53.8,19.1 54.9,18.7 54.9,17.7 C54.9,17.1 54.5,16.6 53.2,16.1 C50.5,15 49.1,13.4 49.1,11.5 C49.1,9 51.3,7 54.6,7 C56,7 57.1,7.3 57.9,7.7 L57.3,10.3 C56.6,9.9 55.6,9.6 54.5,9.6 C53.5,9.6 52.7,10 52.7,10.7 C52.7,11.3 53.2,11.7 54.6,12.3 C56.9,13.3 58.5,14.7 58.5,17.3 Z" id="Path" fill="#00579F"></path>
            <path d="M60.5,10.5 L64,10.5 L65.5,17.8 L65.6,17.8 L68.3,10.5 L71.8,10.5 L67.3,21.5 L63.6,21.5 L60.5,10.5 Z" id="Path" fill="#00579F"></path>
            <path d="M73.8,21.5 L77.2,10.5 L80.5,10.5 L77.1,21.5 L73.8,21.5 Z" id="Path" fill="#00579F"></path>
            <path d="M46.5,21.5 L43.2,10.5 L46.6,10.5 L49.9,21.5 L46.5,21.5 Z" id="Path" fill="#00579F"></path>
        </g>
    </g>
</svg>
