<?xml version="1.0" encoding="UTF-8"?>
<svg width="100px" height="32px" viewBox="0 0 100 32" version="1.1" xmlns="http://www.w3.org/2000/svg" xmlns:xlink="http://www.w3.org/1999/xlink">
    <title>Apple Pay</title>
    <g id="Page-1" stroke="none" stroke-width="1" fill="none" fill-rule="evenodd">
        <g id="apple-pay" fill-rule="nonzero">
            <rect id="Rectangle" fill="#FFFFFF" x="0" y="0" width="100" height="32" rx="4"></rect>
            <g id="Group" transform="translate(25.000000, 8.000000)" fill="#000000">
                <path d="M7.5,3.3 C8.1,2.6 8.5,1.6 8.4,0.6 C7.5,0.7 6.4,1.2 5.8,1.9 C5.2,2.5 4.7,3.6 4.8,4.5 C5.8,4.6 6.9,4 7.5,3.3 Z" id="Path"></path>
                <path d="M8.4,4.8 C6.9,4.7 5.7,5.6 5,5.6 C4.3,5.6 3.2,4.9 2.1,4.9 C0.6,4.9 0,5.9 0,7.8 C0,10.6 2.5,16 4.5,16 C5.3,16 5.9,15.4 6.9,15.4 C7.9,15.4 8.4,16 9.3,16 C10.3,16 11.1,14.5 11.8,13.3 C12.6,11.9 12.9,11.2 12.9,11.1 C12.9,11.1 10.9,10.3 10.9,8 C10.9,6 12.5,5.1 12.6,5 C11.6,3.6 10,3.6 9.5,3.6 C8.5,3.6 7.6,4.3 7,4.3 C6.5,4.3 5.7,3.7 4.8,3.7 L4.8,3.7 Z" id="Path"></path>
                <path d="M21.1,2.5 L18.9,2.5 L17.4,7.1 L15.8,2.5 L13.5,2.5 L16.1,10.1 L14.4,15 L16.6,15 L21.1,2.5 Z" id="Path"></path>
                <path d="M27.4,9.6 C27.4,7.5 26,6 24.1,6 C22.1,6 20.5,7.6 20.5,10 C20.5,12.3 22,14 24.1,14 C25.1,14 26,13.6 26.6,13 L26.6,13.8 L28.6,13.8 L28.6,6.2 L24.6,6.2 L24.6,8 L26.8,8 C26.8,8 27.4,8 27.4,9.6 Z M24.3,12.3 C23.3,12.3 22.5,11.4 22.5,10 C22.5,8.6 23.3,7.7 24.3,7.7 C25.3,7.7 26.1,8.5 26.1,10 C26.1,11.5 25.3,12.3 24.3,12.3 Z" id="Shape"></path>
                <path d="M35.1,13 C35.1,12.1 34.4,11.5 33.1,11.3 L32,11.1 C31.4,11 31.1,10.8 31.1,10.4 C31.1,9.9 31.6,9.6 32.3,9.6 C33,9.6 33.6,9.9 33.7,10.5 L35.4,10.5 C35.3,9 34,8 32.3,8 C30.5,8 29.3,9 29.3,10.5 C29.3,11.4 30,12 31.3,12.2 L32.4,12.4 C33,12.5 33.3,12.7 33.3,13.1 C33.3,13.6 32.8,14 32,14 C31.1,14 30.5,13.6 30.4,13 L28.6,13 C28.7,14.6 30.1,15.6 32,15.6 C33.9,15.6 35.1,14.6 35.1,13 Z" id="Path"></path>
                <path d="M40.1,15.5 C42.4,15.5 44,13.9 44,11.8 C44,9.7 42.4,8.1 40.1,8.1 C37.8,8.1 36.2,9.7 36.2,11.8 C36.2,13.9 37.8,15.5 40.1,15.5 Z M40.1,13.8 C38.9,13.8 38.1,13 38.1,11.8 C38.1,10.6 38.9,9.8 40.1,9.8 C41.3,9.8 42.1,10.6 42.1,11.8 C42.1,13 41.3,13.8 40.1,13.8 Z" id="Shape"></path>
                <path d="M50,15.3 L50,8.3 L48.2,8.3 L48.2,12.3 C48.2,13.3 47.6,13.8 46.7,13.8 C45.9,13.8 45.4,13.3 45.4,12.3 L45.4,8.3 L43.6,8.3 L43.6,12.6 C43.6,14.3 44.7,15.5 46.3,15.5 C47.2,15.5 47.9,15.1 48.3,14.5 L48.3,15.3 L50,15.3 Z" id="Path"></path>
            </g>
        </g>
    </g>
</svg>
